<?xml version="1.0" standalone="no"?>
<!DOCTYPE svg PUBLIC "-//W3C//DTD SVG 20010904//EN"
 "http://www.w3.org/TR/2001/REC-SVG-20010904/DTD/svg10.dtd">
<svg version="1.0" xmlns="http://www.w3.org/2000/svg"
 width="1002.000000pt" height="1002.000000pt" viewBox="0 0 1002.000000 1002.000000"
 preserveAspectRatio="xMidYMid meet">
<g transform="translate(0.000000,1002.000000) scale(0.100000,-0.100000)"
fill="#000000" stroke="none">
<path d="M4748 10015 c-2 -1 -48 -6 -103 -9 -55 -4 -113 -9 -130 -11 -16 -2
-55 -7 -85 -10 -388 -41 -839 -154 -1240 -310 -246 -96 -534 -236 -735 -358
-146 -89 -351 -225 -420 -279 -5 -4 -66 -52 -135 -106 -209 -164 -433 -375
-610 -573 -198 -222 -327 -390 -482 -629 -269 -413 -503 -933 -625 -1390 -24
-90 -28 -106 -38 -155 -3 -11 -8 -31 -11 -45 -3 -14 -17 -79 -30 -145 -47
-234 -72 -416 -89 -664 l-6 -84 53 44 c29 24 69 57 89 74 19 16 46 39 60 50
13 11 118 99 233 195 114 96 225 189 246 205 21 17 89 73 151 126 63 53 141
118 174 144 33 27 69 57 80 67 19 19 22 17 142 -104 67 -68 122 -126 123 -130
0 -3 -102 -90 -228 -193 -125 -103 -238 -197 -252 -209 -14 -11 -59 -48 -100
-81 -41 -33 -88 -72 -105 -86 -16 -15 -134 -112 -261 -215 -307 -252 -298
-244 -288 -253 5 -5 146 -122 314 -261 168 -139 316 -262 330 -274 14 -11 63
-52 110 -91 47 -38 90 -74 96 -80 6 -5 29 -25 52 -43 23 -19 50 -41 60 -50 11
-10 76 -64 146 -121 69 -58 126 -107 126 -110 0 -4 -55 -61 -122 -128 l-123
-122 -80 65 c-44 36 -91 75 -105 88 -14 12 -106 89 -205 172 -99 82 -191 159
-205 171 -41 35 -454 377 -473 392 -18 14 -19 12 -12 -40 9 -82 16 -131 21
-164 3 -16 7 -46 10 -65 2 -19 9 -57 14 -85 6 -27 17 -86 26 -130 21 -105 17
-90 59 -254 33 -131 138 -463 169 -536 8 -16 27 -64 44 -106 116 -287 284
-603 465 -873 80 -121 197 -281 236 -325 11 -13 21 -27 21 -30 0 -3 15 -22 33
-41 17 -20 57 -65 87 -100 93 -111 307 -331 424 -438 439 -399 997 -744 1547
-958 179 -70 521 -178 623 -198 12 -3 82 -18 156 -34 74 -17 155 -33 180 -37
25 -4 54 -9 64 -11 11 -2 56 -8 100 -14 45 -6 95 -13 111 -15 36 -5 108 -12
230 -22 182 -15 661 -9 840 11 17 2 62 6 100 10 39 4 95 11 125 16 30 5 71 12
90 15 19 3 60 10 90 15 30 6 69 13 85 16 105 18 426 103 570 150 847 277 1606
773 2188 1429 44 49 92 104 107 120 44 50 212 274 286 380 155 222 351 570
433 765 13 30 34 80 48 110 81 178 217 587 258 778 2 9 15 67 28 127 14 61 30
144 37 185 7 41 14 84 16 95 2 11 6 40 9 65 3 25 8 56 10 70 15 81 16 132 3
124 -10 -7 -548 -453 -638 -530 -14 -12 -72 -61 -130 -109 -58 -48 -125 -104
-150 -125 -25 -21 -70 -59 -100 -84 l-55 -46 -124 126 c-68 70 -120 129 -115
134 8 7 862 711 982 808 23 19 51 43 64 54 36 31 60 50 113 93 85 67 83 64 48
94 -17 14 -50 42 -74 61 -24 19 -75 62 -115 95 -39 33 -91 76 -115 96 -243
200 -887 734 -898 744 -12 11 6 34 110 140 l124 126 50 -42 c28 -22 61 -50 75
-62 14 -12 63 -53 110 -92 47 -38 87 -72 90 -75 3 -3 151 -127 330 -276 179
-149 354 -295 389 -324 l63 -54 -6 90 c-4 49 -9 105 -11 124 -2 19 -7 64 -10
100 -3 36 -8 76 -10 90 -2 14 -7 45 -10 70 -12 89 -27 179 -56 320 -18 90 -68
288 -101 395 -16 55 -34 116 -40 135 -9 33 -41 119 -90 250 -69 181 -236 534
-301 637 -15 24 -27 45 -27 48 0 24 -260 413 -374 560 -281 363 -626 703 -976
961 -705 519 -1502 844 -2330 950 -92 11 -99 12 -168 19 -37 3 -87 9 -112 11
-49 6 -637 14 -642 9z m3848 -3145 c-1 -3 -7 -16 -14 -30 -6 -14 -34 -81 -62
-150 -28 -69 -57 -138 -65 -155 -12 -27 -228 -539 -327 -775 -22 -52 -57 -135
-78 -185 -35 -84 -120 -286 -685 -1625 -120 -283 -241 -572 -270 -641 -29 -69
-57 -135 -63 -145 -9 -18 -23 -19 -191 -18 -99 0 -183 2 -186 5 -4 5 27 82
128 319 6 14 11 27 12 30 2 6 -11 -25 240 570 120 283 235 558 257 610 21 52
45 109 53 125 7 17 140 332 295 700 281 668 330 783 355 840 7 17 59 140 115
275 56 135 104 247 105 250 2 3 89 5 193 5 105 0 189 -2 188 -5z m-5226 -334
c75 -8 203 -30 275 -46 28 -7 61 -14 75 -16 76 -15 239 -66 365 -115 l100 -40
-1 -404 c0 -223 -4 -408 -7 -412 -5 -5 -394 -8 -494 -4 -21 1 -21 2 -22 258 0
141 -4 259 -8 263 -9 9 -129 37 -188 45 -23 3 -50 7 -60 9 -90 17 -342 24
-415 11 -19 -3 -61 -10 -93 -16 -215 -38 -443 -179 -557 -344 -150 -217 -211
-505 -174 -815 43 -364 226 -628 528 -765 145 -66 285 -92 486 -93 299 -1 551
66 882 234 60 30 110 54 113 54 3 0 5 -115 5 -254 l-1 -255 -44 -25 c-46 -25
-214 -92 -300 -119 -227 -72 -403 -99 -670 -102 -228 -3 -373 11 -520 50 -33
9 -67 18 -75 20 -113 25 -319 126 -439 215 -305 226 -486 561 -529 975 -13
129 -4 477 13 505 2 3 6 24 10 48 27 185 129 425 249 587 203 274 524 466 884
531 12 2 34 6 50 9 15 3 54 8 87 11 33 4 61 8 63 9 6 5 348 -3 412 -9z m2528
-1 c112 -14 153 -20 202 -30 14 -2 61 -12 105 -21 65 -13 206 -49 308 -80 16
-5 17 -31 17 -355 0 -192 -3 -349 -7 -350 -59 -7 -477 -2 -483 6 -5 6 -8 87
-8 180 0 94 0 177 -1 185 -1 10 -12 17 -28 18 -16 1 -44 4 -63 7 -177 26 -440
27 -545 1 -207 -50 -316 -156 -317 -309 -1 -128 48 -211 166 -286 85 -53 174
-90 376 -156 382 -125 505 -176 647 -271 180 -122 297 -299 330 -503 5 -25 8
-107 7 -181 0 -108 -5 -151 -22 -214 -62 -219 -180 -360 -387 -463 -66 -33
-169 -72 -213 -79 -15 -3 -44 -10 -66 -15 -87 -23 -258 -36 -436 -33 -102 1
-198 5 -215 8 -16 2 -58 7 -92 11 -34 3 -72 8 -84 10 -13 3 -41 7 -62 10 -82
13 -197 35 -302 60 -60 14 -134 31 -163 38 l-53 11 1 358 2 358 244 0 244 0 0
-190 c0 -145 3 -190 13 -191 6 0 19 -2 27 -4 371 -80 734 -63 900 43 116 73
167 201 135 337 -21 91 -57 143 -140 205 -97 72 -185 108 -561 230 -122 39
-263 90 -315 113 -287 130 -440 302 -493 557 -13 63 -15 290 -3 335 3 11 10
42 16 68 6 27 24 76 40 110 98 212 282 355 561 433 47 13 104 27 127 30 22 3
63 9 90 13 82 12 382 10 501 -4z"/>
</g>
</svg>
